<svg width="105" height="63" fill="none" xmlns="http://www.w3.org/2000/svg"><g filter="url(#a)"><path d="M88.131 32.639V20.003c0-1.309 1.045-2.37 2.335-2.37l8.326 1.581V11.02c0-2.355-1.708-3.431-4.202-4.265L71.403.175c1.616 1.391 1.89 2.04 1.89 4.396V49.78c0 2.356-.45 4.066-1.968 5.21l23.265-7.065c2.401-.833 4.202-4.216 4.202-6.572V33.44l-8.326 1.567c-1.29.002-2.335-1.06-2.335-2.368Z" fill="#363636"/><path d="m99.13 20.979-7.599-1.444c-1.008 0-1.824.829-1.824 1.851v9.868c0 1.023.816 1.852 1.824 1.852l7.598-1.431c1.154-.419 1.824-.829 1.824-1.852V22.83c0-1.022-.766-1.507-1.824-1.851ZM71.17 4.483c0-5.08-4.232-4.459-4.232-4.459S9.832 4.738 6.838 5.145c-2.994.407-2.837 4.387-2.837 4.387v36.28c0 3.743 2.598 3.753 2.598 3.753l16.477 1.403L31.212 39.3s1.11-1.828 2.505-1.828c1.397 0 2.432 1.861 2.432 1.861l9.061 13.521s18.895 1.909 22.521 1.909c3.626-.001 3.44-5.024 3.44-5.024V4.483ZM16.982 37.192c-3.698 0-6.696-4.601-6.696-10.275s2.998-10.275 6.696-10.275c3.698 0 6.696 4.601 6.696 10.275s-2.998 10.275-6.696 10.275Zm36.158 1.426c-4.662 0-8.44-5.239-8.44-11.701 0-6.463 3.78-11.702 8.44-11.702 4.662 0 8.442 5.239 8.442 11.702 0 6.462-3.78 11.701-8.442 11.701Z" fill="#363636"/><path d="m66.98.522-.042-.498.04.498h-.001l-.008.001-.03.003-.123.01-.478.04-1.818.15A25124.013 25124.013 0 0 0 38.053 2.93C23.388 4.16 8.386 5.44 6.906 5.64c-1.224.167-1.826 1.046-2.133 2.004a6.001 6.001 0 0 0-.251 1.302 6.08 6.08 0 0 0-.022.534v.027l.001.005V9.533h-.5.5v36.28c0 1.742.595 2.515 1.092 2.875a2.065 2.065 0 0 0 .948.373l.055.005H6.622l.02.002 16.19 1.378 7.963-11.42.008-.013a4.023 4.023 0 0 1 .201-.294 6.21 6.21 0 0 1 .582-.684c.474-.48 1.224-1.062 2.131-1.062.916 0 1.65.6 2.106 1.09a5.97 5.97 0 0 1 .706.93l.024.041.017.028.005.008 8.92 13.311.584.058a1305.725 1305.725 0 0 0 9.078.873c5.19.478 10.79.952 12.574.952L66.98.523Zm0 0 .015-.001m-.016.001.016-.001m4.175 49.218h-.5V49.758l.001.008v.182a7.853 7.853 0 0 1-.026.534 7.32 7.32 0 0 1-.31 1.615c-.188.582-.47 1.126-.882 1.52-.4.382-.944.646-1.722.646l3.44-4.524Zm0 0h-.5V4.483c0-1.2-.25-2.02-.589-2.581A2.73 2.73 0 0 0 68.848.804a3.579 3.579 0 0 0-1.275-.298 3.738 3.738 0 0 0-.56.012h-.002m4.16 49.221L67.01.519m-.016.002.014-.002m-.014.002.014-.002m0 0h.001m23.55 16.623-.047-.009h-.047c-1.573 0-2.835 1.292-2.835 2.87v12.636c0 1.577 1.262 2.87 2.836 2.868h.046l.046-.009 7.733-1.455v7.31c0 1.067-.413 2.413-1.128 3.599-.716 1.186-1.683 2.131-2.728 2.498l-21.544 6.542c.685-1.144.9-2.562.9-4.212V4.571c0-1.18-.064-2.024-.379-2.757a3.63 3.63 0 0 0-.364-.652l21.394 6.07c1.225.411 2.19.862 2.848 1.456.636.574 1.001 1.298 1.001 2.332v7.59l-7.732-1.468Zm-.353 4.244c0-.738.576-1.327 1.281-1.35l7.516 1.428c.494.163.86.341 1.099.558.223.2.35.444.35.808v6.993c0 .38-.114.6-.315.782-.227.207-.589.384-1.141.586l-7.508 1.414a1.339 1.339 0 0 1-1.282-1.351v-9.868Zm-80.42 5.531c0 2.92.77 5.586 2.042 7.538 1.269 1.947 3.08 3.237 5.153 3.237 2.074 0 3.885-1.29 5.154-3.237 1.272-1.952 2.042-4.618 2.042-7.538s-.77-5.586-2.042-7.538c-1.269-1.948-3.08-3.237-5.154-3.237-2.073 0-3.884 1.29-5.153 3.237-1.272 1.952-2.043 4.618-2.043 7.538Zm34.412 0c0 3.324.972 6.355 2.567 8.566 1.595 2.211 3.842 3.635 6.374 3.635 2.533 0 4.78-1.424 6.375-3.635 1.596-2.211 2.567-5.242 2.567-8.566 0-3.325-.971-6.355-2.567-8.567-1.595-2.211-3.842-3.635-6.375-3.635-2.531 0-4.778 1.424-6.373 3.635-1.596 2.212-2.568 5.242-2.568 8.567Z" stroke="#000"/></g><defs><filter id="a" x="0" y="0" width="104.953" height="62.99" filterUnits="userSpaceOnUse" color-interpolation-filters="sRGB"><feFlood flood-opacity="0" result="BackgroundImageFix"/><feColorMatrix in="SourceAlpha" values="0 0 0 0 0 0 0 0 0 0 0 0 0 0 0 0 0 0 127 0" result="hardAlpha"/><feOffset dy="4"/><feGaussianBlur stdDeviation="2"/><feComposite in2="hardAlpha" operator="out"/><feColorMatrix values="0 0 0 0 0 0 0 0 0 0 0 0 0 0 0 0 0 0 0.25 0"/><feBlend in2="BackgroundImageFix" result="effect1_dropShadow_28824_259"/><feBlend in="SourceGraphic" in2="effect1_dropShadow_28824_259" result="shape"/></filter></defs></svg>