<svg xmlns="http://www.w3.org/2000/svg" width="153" height="44" fill="none"><g fill="#FFC700" filter="url(#a)"><path d="M31.219 0v35.3h-7.606v-2.4c-1.7 1.9-4.102 3.1-7.505 3.1C9.504 36 4 30.2 4 22.7 4 15.2 9.504 9.4 16.108 9.4c3.403 0 5.904 1.2 7.505 3.1V0h7.606Zm-7.606 22.7c0-3.8-2.501-6.2-6.004-6.2-3.502 0-6.004 2.4-6.004 6.2 0 3.8 2.502 6.2 6.004 6.2 3.503-.1 6.004-2.4 6.004-6.2ZM47.73 29.2c2.101 0 3.803-.8 4.803-1.9l6.104 3.5C56.136 34.2 52.433 36 47.63 36c-8.606 0-14.01-5.8-14.01-13.3 0-7.5 5.404-13.3 13.41-13.3 7.404 0 12.808 5.7 12.808 13.3 0 1.1-.1 2.1-.3 3H41.626c1 2.6 3.302 3.5 6.104 3.5Zm4.603-9.1c-.8-2.9-3.102-4-5.404-4-2.902 0-4.803 1.4-5.504 4h10.908ZM86.156 10.1 76.85 35.3h-8.606l-9.306-25.2h8.405l5.304 16 5.304-16h8.205ZM87.458 10.1h7.605v25.2h-7.605V10.1ZM97.665 22.7c0-7.5 5.704-13.3 13.409-13.3 4.904 0 9.207 2.6 11.408 6.5l-6.604 3.8c-.901-1.8-2.702-2.8-4.904-2.8-3.302 0-5.704 2.4-5.704 5.8 0 3.5 2.402 5.8 5.704 5.8 2.202 0 4.103-1.1 4.904-2.8l6.604 3.8c-2.101 3.9-6.404 6.5-11.408 6.5-7.705 0-13.409-5.8-13.409-13.3ZM136.892 29.2c2.101 0 3.803-.8 4.803-1.9l6.104 3.5c-2.501 3.4-6.204 5.2-11.007 5.2-8.606 0-14.01-5.8-14.01-13.3 0-7.5 5.504-13.3 13.409-13.3C143.597 9.4 149 15.1 149 22.7c0 1.1-.1 2.1-.3 3h-17.912c1 2.6 3.302 3.5 6.104 3.5Zm4.703-9.1c-.8-2.9-3.102-4-5.404-4-2.902 0-4.803 1.4-5.503 4h10.907Z"/></g><defs><filter id="a" width="153" height="44" x="0" y="0" color-interpolation-filters="sRGB" filterUnits="userSpaceOnUse"><feFlood flood-opacity="0" result="BackgroundImageFix"/><feColorMatrix in="SourceAlpha" result="hardAlpha" values="0 0 0 0 0 0 0 0 0 0 0 0 0 0 0 0 0 0 127 0"/><feOffset dy="4"/><feGaussianBlur stdDeviation="2"/><feComposite in2="hardAlpha" operator="out"/><feColorMatrix values="0 0 0 0 0 0 0 0 0 0 0 0 0 0 0 0 0 0 0.25 0"/><feBlend in2="BackgroundImageFix" result="effect1_dropShadow_11534_7470"/><feBlend in="SourceGraphic" in2="effect1_dropShadow_11534_7470" result="shape"/></filter></defs></svg>